<svg width="21" height="20" viewBox="0 0 21 20" fill="none" xmlns="http://www.w3.org/2000/svg">
<path d="M16 14L20 10M20 10L16 6M20 10H6.00001M12 14V15C12 15.7956 11.6839 16.5587 11.1213 17.1213C10.5587 17.6839 9.79566 18 9.00001 18H5.00001C2.99988 18 3.06249 18.0626 2.49988 17.5C1.93727 16.9374 2.00001 17 2.00001 15V5C2.00001 3 1.93727 3.06261 2.49988 2.5C3.06249 1.93739 3.00001 2 5.00001 2H9.00001C9.79566 2 10.5587 2.31607 11.1213 2.87868C11.6839 3.44129 12 4.20435 12 5V6" 
stroke="#828282" stroke-width="2" stroke-linecap="round" stroke-linejoin="round"/>
</svg>